<mxfile host="app.diagrams.net" agent="Mozilla/5.0 (Windows NT 10.0; Win64; x64) AppleWebKit/537.36 (KHTML, like Gecko) Chrome/129.0.0.0 Safari/537.36" version="24.7.17">
  <diagram name="PÃ¡gina-1" id="YoqC09BCO-IND4jvvCFV">
    <mxGraphModel dx="1185" dy="627" grid="1" gridSize="10" guides="1" tooltips="1" connect="1" arrows="1" fold="1" page="1" pageScale="1" pageWidth="827" pageHeight="1169" math="0" shadow="0">
      <root>
        <mxCell id="0" />
        <mxCell id="1" parent="0" />
        <mxCell id="mgsFQZzhEpvXSv_NFFzJ-1" value="N9K-Spine" style="sketch=0;points=[[0.015,0.015,0],[0.985,0.015,0],[0.985,0.985,0],[0.015,0.985,0],[0.25,0,0],[0.5,0,0],[0.75,0,0],[1,0.25,0],[1,0.5,0],[1,0.75,0],[0.75,1,0],[0.5,1,0],[0.25,1,0],[0,0.75,0],[0,0.5,0],[0,0.25,0]];verticalLabelPosition=bottom;html=1;verticalAlign=top;aspect=fixed;align=center;pointerEvents=1;shape=mxgraph.cisco19.rect;prIcon=l3_switch;fillColor=#FAFAFA;strokeColor=#005073;" vertex="1" parent="1">
          <mxGeometry x="190" y="540" width="90" height="90" as="geometry" />
        </mxCell>
        <mxCell id="mgsFQZzhEpvXSv_NFFzJ-2" value="R1-CSR1K" style="sketch=0;points=[[0.5,0,0],[1,0.5,0],[0.5,1,0],[0,0.5,0],[0.145,0.145,0],[0.8555,0.145,0],[0.855,0.8555,0],[0.145,0.855,0]];verticalLabelPosition=top;html=1;verticalAlign=bottom;aspect=fixed;align=center;pointerEvents=1;shape=mxgraph.cisco19.rect;prIcon=router;fillColor=#FAFAFA;strokeColor=#005073;labelPosition=center;" vertex="1" parent="1">
          <mxGeometry x="190" y="310" width="90" height="90" as="geometry" />
        </mxCell>
        <mxCell id="mgsFQZzhEpvXSv_NFFzJ-3" style="edgeStyle=orthogonalEdgeStyle;rounded=0;orthogonalLoop=1;jettySize=auto;html=1;entryX=0.5;entryY=0;entryDx=0;entryDy=0;entryPerimeter=0;startArrow=classic;startFill=1;" edge="1" parent="1" source="mgsFQZzhEpvXSv_NFFzJ-2" target="mgsFQZzhEpvXSv_NFFzJ-1">
          <mxGeometry relative="1" as="geometry" />
        </mxCell>
        <mxCell id="mgsFQZzhEpvXSv_NFFzJ-7" style="edgeStyle=orthogonalEdgeStyle;rounded=0;orthogonalLoop=1;jettySize=auto;html=1;startArrow=classic;startFill=1;" edge="1" parent="1" source="mgsFQZzhEpvXSv_NFFzJ-4" target="mgsFQZzhEpvXSv_NFFzJ-6">
          <mxGeometry relative="1" as="geometry" />
        </mxCell>
        <mxCell id="mgsFQZzhEpvXSv_NFFzJ-4" value="Internet" style="ellipse;shape=cloud;whiteSpace=wrap;html=1;" vertex="1" parent="1">
          <mxGeometry x="414" y="302.5" width="176" height="105" as="geometry" />
        </mxCell>
        <mxCell id="mgsFQZzhEpvXSv_NFFzJ-5" style="edgeStyle=orthogonalEdgeStyle;rounded=0;orthogonalLoop=1;jettySize=auto;html=1;entryX=0.076;entryY=0.497;entryDx=0;entryDy=0;entryPerimeter=0;startArrow=classic;startFill=1;" edge="1" parent="1" source="mgsFQZzhEpvXSv_NFFzJ-2" target="mgsFQZzhEpvXSv_NFFzJ-4">
          <mxGeometry relative="1" as="geometry" />
        </mxCell>
        <mxCell id="mgsFQZzhEpvXSv_NFFzJ-9" style="edgeStyle=orthogonalEdgeStyle;rounded=0;orthogonalLoop=1;jettySize=auto;html=1;entryX=0.5;entryY=0;entryDx=0;entryDy=0;startArrow=classic;startFill=1;" edge="1" parent="1" source="mgsFQZzhEpvXSv_NFFzJ-6" target="mgsFQZzhEpvXSv_NFFzJ-10">
          <mxGeometry relative="1" as="geometry">
            <mxPoint x="729" y="470" as="targetPoint" />
          </mxGeometry>
        </mxCell>
        <mxCell id="mgsFQZzhEpvXSv_NFFzJ-6" value="AWS Vpg" style="sketch=0;outlineConnect=0;fontColor=#232F3E;gradientColor=none;fillColor=#8C4FFF;strokeColor=none;dashed=0;verticalLabelPosition=top;verticalAlign=bottom;align=center;html=1;fontSize=12;fontStyle=0;aspect=fixed;pointerEvents=1;shape=mxgraph.aws4.customer_gateway;labelPosition=center;" vertex="1" parent="1">
          <mxGeometry x="690" y="316" width="78" height="78" as="geometry" />
        </mxCell>
        <mxCell id="mgsFQZzhEpvXSv_NFFzJ-8" value="EC2 instance" style="outlineConnect=0;dashed=0;verticalLabelPosition=bottom;verticalAlign=top;align=center;html=1;shape=mxgraph.aws3.instance;fillColor=#F58534;gradientColor=none;" vertex="1" parent="1">
          <mxGeometry x="699" y="553.5" width="60" height="63" as="geometry" />
        </mxCell>
        <mxCell id="mgsFQZzhEpvXSv_NFFzJ-10" value="" style="rounded=1;arcSize=10;dashed=0;fillColor=none;gradientColor=none;strokeWidth=2;" vertex="1" parent="1">
          <mxGeometry x="639" y="500" width="180" height="195" as="geometry" />
        </mxCell>
        <mxCell id="mgsFQZzhEpvXSv_NFFzJ-11" value="" style="dashed=0;html=1;shape=mxgraph.aws3.permissions;fillColor=#D9A741;gradientColor=none;dashed=0;" vertex="1" parent="1">
          <mxGeometry x="639" y="475" width="30" height="35" as="geometry" />
        </mxCell>
        <mxCell id="mgsFQZzhEpvXSv_NFFzJ-12" value="" style="shape=flexArrow;endArrow=classic;startArrow=classic;html=1;rounded=0;" edge="1" parent="1">
          <mxGeometry width="100" height="100" relative="1" as="geometry">
            <mxPoint x="280" y="240" as="sourcePoint" />
            <mxPoint x="720" y="240" as="targetPoint" />
          </mxGeometry>
        </mxCell>
        <mxCell id="mgsFQZzhEpvXSv_NFFzJ-13" value="GRE over IPSEC&lt;div&gt;&lt;font style=&quot;font-size: 9px;&quot;&gt;Site to site vpn (endpoints 192.168.10.10/31 R1 y 192.168.10.11 aws)&lt;/font&gt;&lt;/div&gt;&lt;div&gt;&lt;font style=&quot;font-size: 9px;&quot;&gt;NAT TRANSVERSAL&lt;/font&gt;&lt;/div&gt;" style="text;html=1;align=center;verticalAlign=middle;whiteSpace=wrap;rounded=0;" vertex="1" parent="1">
          <mxGeometry x="320" y="190" width="340" height="30" as="geometry" />
        </mxCell>
        <mxCell id="mgsFQZzhEpvXSv_NFFzJ-14" value="BGP ASN 65010 Advertising 10.25.0.0/16" style="text;html=1;align=center;verticalAlign=middle;whiteSpace=wrap;rounded=0;fontSize=9;" vertex="1" parent="1">
          <mxGeometry x="280" y="302.5" width="110" height="30" as="geometry" />
        </mxCell>
        <mxCell id="mgsFQZzhEpvXSv_NFFzJ-15" value="BGP ASN 65011 Advertising 10.10.0.0/16" style="text;html=1;align=center;verticalAlign=middle;whiteSpace=wrap;rounded=0;fontSize=9;" vertex="1" parent="1">
          <mxGeometry x="590" y="302.5" width="110" height="30" as="geometry" />
        </mxCell>
        <mxCell id="mgsFQZzhEpvXSv_NFFzJ-16" value="VPC = 10.10.0.0/16, subnet 10.10.0.0/24" style="text;html=1;align=center;verticalAlign=middle;whiteSpace=wrap;rounded=0;fontSize=9;" vertex="1" parent="1">
          <mxGeometry x="740" y="470" width="110" height="30" as="geometry" />
        </mxCell>
        <mxCell id="mgsFQZzhEpvXSv_NFFzJ-17" value="&lt;span style=&quot;color: rgb(0, 0, 0); font-family: Helvetica; font-size: 9px; font-style: normal; font-variant-ligatures: normal; font-variant-caps: normal; font-weight: 400; letter-spacing: normal; orphans: 2; text-align: center; text-indent: 0px; text-transform: none; widows: 2; word-spacing: 0px; -webkit-text-stroke-width: 0px; white-space: normal; background-color: rgb(251, 251, 251); text-decoration-thickness: initial; text-decoration-style: initial; text-decoration-color: initial; display: inline !important; float: none;&quot;&gt;Instance 10.10.0.10/24&lt;/span&gt;" style="text;whiteSpace=wrap;html=1;" vertex="1" parent="1">
          <mxGeometry x="680" y="630" width="131" height="20" as="geometry" />
        </mxCell>
        <mxCell id="mgsFQZzhEpvXSv_NFFzJ-18" value="Two SVI: 10.25.0.0/24 y 10.25.1.0/24" style="text;html=1;align=center;verticalAlign=middle;whiteSpace=wrap;rounded=0;fontSize=9;" vertex="1" parent="1">
          <mxGeometry x="180" y="650" width="110" height="30" as="geometry" />
        </mxCell>
        <mxCell id="mgsFQZzhEpvXSv_NFFzJ-21" value="" style="shape=flexArrow;endArrow=classic;startArrow=classic;html=1;rounded=0;" edge="1" parent="1">
          <mxGeometry width="100" height="100" relative="1" as="geometry">
            <mxPoint x="260" y="520" as="sourcePoint" />
            <mxPoint x="260" y="410" as="targetPoint" />
          </mxGeometry>
        </mxCell>
        <mxCell id="mgsFQZzhEpvXSv_NFFzJ-22" value="iBGP inside simulated datacenter. R1 advertise summary route" style="text;html=1;align=center;verticalAlign=middle;whiteSpace=wrap;rounded=0;fontSize=9;" vertex="1" parent="1">
          <mxGeometry x="270" y="445" width="110" height="30" as="geometry" />
        </mxCell>
      </root>
    </mxGraphModel>
  </diagram>
</mxfile>
